<?xml version="1.0" encoding="UTF-8"?>
<svg viewBox="0 0 1600 1600" xmlns="http://www.w3.org/2000/svg">
 <path d="m762.98 13.786l-2.2569 0.1524c-93.451 2.8996-189.4 16.02-288.21 38.56-98.774 22.53-200.5 54.5-305.2 94.799l-6.5051 2.4384 0.2655 0.4573c-179.62 65.598-175.16 89.478-108.73 261.99 6.2478 13.097 12.646 26.431 19.117 39.931 2.6788 11.986 6.2494 23.51 10.753 34.14 2.6145 6.1693 5.5361 12.146 8.7619 17.68 3.2426 5.5609 6.6914 10.717 10.488 15.394h0.13278c1.0219 1.2632 2.2392 2.2997 3.5844 3.048 8.8472 18.323 17.924 36.915 27.082 55.782 3.2672 15.354 7.9174 30.197 13.939 43.742 2.5905 5.8266 5.5827 11.46 8.7619 16.917 3.1804 5.4601 6.6005 10.513 10.222 15.241l0.531 0.7622c1.6865 2.1682 3.8898 3.6142 6.2395 4.4197 5.4519 11.236 10.928 22.62 16.462 33.988 2.7475 22.947 8.5488 45.198 17.524 65.079 2.4098 5.3405 4.9786 10.453 7.8325 15.394 2.872 4.9683 5.9588 9.8022 9.2929 14.326l0.2654 0.3049c3.4922 4.7007 8.9663 6.5193 14.072 5.1819h0.13278c0.024216-0.027466 0.10849-0.12494 0.13269-0.1524 8.8004 17.781 17.739 35.686 26.684 53.648 3.6829 21.252 10.101 41.803 19.382 60.507 2.3784 4.7936 4.8926 9.5738 7.6999 14.174 2.8269 4.6328 5.8875 9.0566 9.0274 13.26 2.7953 3.7414 6.7213 5.7601 10.753 5.944 8.6774 17.332 17.406 34.713 26.153 52.124 2.8849 24.655 9.5219 48.776 20.577 70.566 2.2035 4.3453 4.6445 8.532 7.1688 12.65 2.5285 4.1221 5.2005 8.1022 8.0981 12.04v0.15247c3.7608 5.113 9.6756 7.0151 15.134 5.6394 0.007751-0.001099 0.10306-3.66e-4 0.13275 0 13.984 27.593 27.914 55.167 41.951 82.606-7.32e-4 0.013306 2.75e-4 0.13989 0 0.15247 0.27307 2.1464 0.59689 4.4185 0.92935 6.5538 3.5751 22.878 10.598 45.268 21.506 65.841 2.0938 3.9487 4.3139 7.8126 6.7705 11.736 2.3934 3.8202 4.9407 7.6721 7.6998 11.43h0.13269c3.879 5.2564 9.8517 7.5276 15.4 6.2487 35.271 68.204 70.282 135.23 104.48 199.66 18.871 36.02 36.26 56.551 75.671 31.396 29.46-16.988 59.276-33.905 89.212-50.753 18.157 39.742 35.699 86.909 44.075 119.34 3.4244-12.486 14.087-38.586 17.258-56.239 12.29 17.515 35.248 33.082 47.659 40.998-18.103-33.844-35.925-86.898-58.014-132.75 249.98-139.34 506.73-274.05 694.71-406.63 1.4936-0.96008 2.788-2.1631 3.717-3.3531 0.17444-0.2298 0.37964-0.52918 0.53101-0.76215 7.0737-11.229-8.7501-29.292-26.684-27.434-9.5625-34.844 1.3034-82.57 27.348-139 6.6255-14.357 14.377-29.443 22.967-44.961 3.8193-6.9025 7.8223-13.893 11.948-20.88 0.022827-0.024902 0.10998-0.12732 0.13269-0.1524 14.602-7.738 29.248-15.432 43.942-23.166l5.3102-2.7435-2.9204-5.7916-0.2657-0.4572c-0.006226-0.00946-0.10303-0.11926-0.13269-0.1524-2.2695-2.8778-25.474-22.688-63.457-54.868-159.44-135.08-581.3-492.3-755.78-684.32l-1.5931-1.8288zm-99.169 18.899c0.1344-0.014 0.26392 0.013786 0.39825 0 49.461 12.881 98.225 28.706 146.3 47.704 173.84 176.86 478.44 438.31 646.39 580.99 0.001953 0.051941-0.002075 0.10016 0 0.15253 2.007 51.691 1.9308 103.56-0.39832 155.61-84.046 45.086-166.46 90.088-247.59 135.04-119 65.924-235.02 131.54-349.28 197.07-123.36-158.85-244.3-321.08-359.37-486.95-114.47-165-223.15-333.59-323-506 101.88-38.912 200.89-69.927 297.24-91.903 64.305-14.668 127.44-25.267 189.31-31.701zm-512.17 251.63c0.14545-0.013336 0.25246 0.012238 0.39825 0 0.30112-0.025635 0.62645 0.021759 0.92931 0 0.31267-0.022675 0.61472 0.018738 0.92924 0 0.32472-0.019409 0.60249 0.015198 0.92932 0 0.69714-0.032623 1.4173 0.014618 2.1241 0 1.1696-0.024414 2.388-0.025238 3.5844 0l0.3982 0.1524c0.011444-8.54e-4 0.12158 0 0.13277 0 0.15298 0.030243 0.39806 0.10449 0.5311 0.15244 0.046371 0.026245 0.22017 0.12506 0.26547 0.15237 0.041397 0.023621 0.1969 0.11197 0.26544 0.1524 0.04747 0.024048 0.22148 0.12653 0.26553 0.15231-0.00119 0.017609 3.66e-4 0.13855 0 0.15234 0.015732-0.00116 0.12059 5.19e-4 0.13278 0-0.001038 0.03595-0.001221 0.14828 0 0.1524-0.015717 0.014771-0.1203 0.13928-0.13278 0.1524 6.41e-4 0.017212-1.98e-4 0.13873 0 0.15247-0.022263 0.055817-0.11032 0.25577-0.13278 0.30481-0.016815 0.022217-0.11485 0.13083-0.13275 0.1524-0.019058 0.021484-0.11273 0.13162-0.13268 0.1525-0.026901 0.031128-0.11505 0.13196-0.13277 0.15234-0.20184 0.17722-0.43811 0.32233-0.6638 0.45731-0.047592 0.026489-0.19634 0.11337-0.26553 0.1524-0.14055 0.049713-0.40456 0.11316-0.53099 0.15244-0.25706 0.071503-0.65019 0.133-0.92926 0.15244-0.080734 0.003082-0.18385 0.001343-0.26552 0h-0.53111c-2.2867-0.031097-4.497 0.005463-6.505 0.15244-2.127 0.15549-4.1244 0.43204-6.1068 0.76193-10.319 1.7212-19.303 5.7455-26.949 11.583-1.4134 1.0783-2.9178 2.3289-4.3809 3.6579-1.3819 1.258-2.6776 2.5662-3.9827 3.9626-6.6306 7.1008-12.154 15.841-16.462 25.605-0.80654 1.8335-1.5738 3.936-2.3896 6.0964-0.87887 2.3275-1.6788 4.3042-2.2569 6.0962-3.4543 10.711-5.69 22.377-6.9033 34.445v0.1524c-0.64447 6.4369-1.038 13.046-1.062 19.813-0.024307 6.6978 0.34973 13.344 0.92924 19.966 3.0164 34.426 14.03 67.992 31.861 89.922 0.028091 0.031677 0.11459 0.13147 0.13277 0.1524 2.82e-4 0.017151 0 0.13846 0 0.1525-0.015228 0.014771-0.12042 0.13888-0.13277 0.15222 0.001137 0.016846-1.75e-4 0.1387 0 0.15244-0.029747 0.033508-0.12531 0.143-0.13277 0.15228-0.045013 0.052216-0.22 0.25253-0.26543 0.30481-0.075783 0.07016-0.27074 0.20773-0.39832 0.30493-0.10792 0.08017-0.28098 0.22131-0.39825 0.30481-0.085091 0.058014-0.20059 0.12-0.26556 0.15247-0.012932-0.001556-0.12075 3.05e-4 -0.13277 0-0.047127 0.027039-0.21951 0.12479-0.26544 0.15234-0.023369 0.028229-0.10986 0.12479-0.13277 0.15247-0.011917 0-0.1191 9.77e-4 -0.13277 0-0.011627-1.53e-4 -0.11964 8.54e-4 -0.13277 0-0.046852 0.003967-0.2113 0.003967-0.26548 0-0.016991-7.32e-4 -0.11724-5.19e-4 -0.13277 0-0.013123-0.001251-0.12038-1.53e-4 -0.13278 0-0.056641 0.029541-0.21278 0.12085-0.26555 0.15237-0.01181 0-0.11881 5.8e-4 -0.13268 0-0.025299 4.27e-4 -0.1164 0.001617-0.13276 0-0.013222 5.8e-4 -0.12105 0-0.13277 0-0.011635 2.75e-4 -0.119-6.71e-4 -0.13278 0-0.046768-0.026917-0.21943-0.12472-0.26543-0.15237-0.012131 0-0.118-7.32e-4 -0.13277 0-0.13464-0.034027-0.39149-0.10019-0.53102-0.15247-0.011742-0.013855-0.11945-0.13504-0.13277-0.15234-0.005928 9.2e-5 -0.10274 3.05e-4 -0.13277 0-0.011803-0.013672-0.11899-0.13553-0.13277-0.15247-0.01181-0.013672-0.11871-0.13583-0.13279-0.15237-0.029854-2.14e-4 -0.12553-0.001404-0.13276 0v-0.15244c-3.438-4.2339-6.6487-8.8785-9.5583-13.869-2.9261-5.0201-5.551-10.456-7.9654-16.156-12.501-29.504-17.728-66.416-14.338-100.13 0.25723-2.5457 0.49396-4.9805 0.79656-7.1632 0.32643-2.354 0.7838-4.709 1.1948-7.011 2.1102-11.762 5.3654-22.965 9.824-33.073 0.91842-2.0824 1.8335-4.0796 2.7879-5.9439 0.99817-1.9494 1.9862-3.837 3.0533-5.6392 5.514-9.3128 12.419-17.245 20.577-23.471l0.2656-0.3048c1.5941-1.2046 3.3034-2.3442 5.1774-3.5055 1.7537-1.087 3.634-2.2381 5.5758-3.2007 7.4429-3.687 15.796-6.3281 24.958-7.1632zm69.166 102.88c0.17433-0.016571 0.35619 0.015137 0.53101 0 0.11067-0.003723 0.28761-0.001373 0.3983 0 0.022186-7.63e-4 0.11054 0.001678 0.13269 0 0.027618 3.05e-4 0.12166 3.05e-4 0.13278 0 0.08815 5.49e-4 0.1772-0.001038 0.26552 0 0.027542 2.14e-4 0.12143 8.24e-4 0.13277 0 0.37468-0.027679 0.68495 0.022034 1.062 0 0.38927-0.023041 0.80304 0.01709 1.1948 0 0.61658-0.027496 1.2354 0.013275 1.8587 0h0.39816c0.012787-5.49e-4 0.12134 0 0.13278 0 0.14885 0.032104 0.40561 0.11179 0.53099 0.15244 0.11282 0.039917 0.29535 0.1019 0.39825 0.15231 0.075134 0.039154 0.19809 0.10938 0.26555 0.15237 0.10469 0.073364 0.30287 0.21924 0.39832 0.30502 0.025589 0.030243 0.1178 0.13672 0.13278 0.15207 0.027359 0.031952 0.12148 0.14017 0.13264 0.15247 0.02803 0.031555 0.12264 0.13928 0.13278 0.15244 0.014343 0.015717 0.12097 0.13898 0.13278 0.15244 0.014542 0.01535 0.12086 0.13895 0.13278 0.15244 0.046387 0.12116 0.1021 0.3511 0.13269 0.45724-7.32e-4 0.014954 3.66e-4 0.13907 0 0.15244-3.66e-4 0.015015 3.05e-4 0.13913 0 0.15237l0.1328 0.3049c-0.036591 0.040253-0.12337 0.1395-0.13278 0.1524-5.34e-4 0.043304-6.56e-4 0.22382 0 0.30493 3.05e-4 0.033478 7.48e-4 0.1441 0 0.15237-0.0242 0.027039-0.10809 0.12494-0.13269 0.15244 5.65e-4 0.01651-1.68e-4 0.13849 0 0.15247-0.024582 0.026978-0.10811 0.12494-0.13278 0.15225 9.61e-4 0.016571-1.68e-4 0.13864 0 0.15244-0.023544 0.026642-0.10889 0.12582-0.13278 0.15244-0.14156 0.21143-0.34462 0.43408-0.53094 0.60953-0.020645 0.024597-0.10989 0.12357-0.1328 0.1524-0.012039 0.013885-0.12068 0.13968-0.13278 0.15244-0.047516 0.027374-0.21916 0.12738-0.26555 0.15244-0.012924-0.001495-0.12038 2.14e-4 -0.13271 0-0.056702 0.028229-0.21286 0.12018-0.26555 0.15244-0.011505-5.19e-4 -0.11945 0.001404-0.13266 0-0.29424 0.10638-0.72113 0.25107-1.0621 0.30487-0.011566-1.83e-4 -0.11964 3.36e-4 -0.13277 0-0.027023 0.001495-0.10626-5.49e-4 -0.13275 0h-0.53101c-2.3888 0.067047-4.6045 0.34344-6.7705 0.60962-2.294 0.2814-4.4262 0.60025-6.5051 1.0668-10.927 2.4554-20.598 7.4387-28.808 14.479v0.15237c-1.7521 1.5037-3.4918 3.1355-5.3102 5.0294-1.7865 1.8598-3.5093 3.7297-5.0448 5.6392-8.0996 10.066-14.481 22.565-19.25 36.426l-0.2655 0.9146c-0.93329 2.767-1.8603 5.538-2.6551 8.3826-0.79186 2.8323-1.4513 5.7255-2.1241 8.6873-3.3673 14.805-5.1703 30.674-5.3102 46.79v1.0669c-0.027161 6.4284 0.22574 12.755 0.66371 18.899 0.44856 6.266 1.0597 12.501 1.9914 18.746 4.7491 31.849 15.81 61.984 32.791 83.826l0.1328 0.3047c0.035782 0.076416 0.10498 0.23871 0.13281 0.30475 0.024475 0.052734 0.10963 0.25134 0.13275 0.30487-6.56e-4 0.014709 2.75e-4 0.1391 0 0.15265 4.12e-4 0.05249 0.001007 0.25122 0 0.30481 0.001007 0.045654 7.17e-4 0.22455 0 0.30481 0.001617 0.051636 1.07e-4 0.25201 0 0.30469-0.022614 0.052063-0.1084 0.2522-0.13275 0.30475 7.02e-4 0.016418-2.14e-4 0.13843 0 0.15222-0.024414 0.027161-0.1082 0.12549-0.13281 0.1524 8.7e-4 0.016663-1.68e-4 0.13904 0 0.15247-0.029282 0.033142-0.1246 0.14246-0.13277 0.15247-0.07225 0.080017-0.20076 0.2337-0.26555 0.30487-0.028366 0.031006-0.10248 0.12152-0.13264 0.15247l-0.2656 0.3048c-0.044449 0.025208-0.22076 0.12891-0.26553 0.1524-0.069412 0.039856-0.22466 0.12824-0.2655 0.15247-0.023071 0.0271-0.10956 0.12494-0.13275 0.1524-0.005646-8.54e-4 -0.10266-3.05e-4 -0.13277 0-0.045364 0.026794-0.21924 0.12592-0.26547 0.15247-0.013199-0.001343-0.12047 0-0.13275 0-0.055267 0.028625-0.21175 0.12048-0.26553 0.15234-0.3075 0.048828-0.77356 0.012817-1.062 0-0.38208-0.030701-0.85698-0.15015-1.1949-0.30481-0.052475-0.032837-0.20872-0.12415-0.26549-0.1524-0.012238 0-0.1197-0.001404-0.13275 0-0.10558-0.076477-0.27957-0.19769-0.39819-0.30487-0.011551-0.013611-0.11969-0.1369-0.13278-0.15253-0.012024-0.01416-0.10527-0.12097-0.1328-0.15228l-0.531-0.6098 0.1327-0.1525c-3.3926-4.4277-6.5672-9.1137-9.4256-14.022-2.8617-4.9115-5.4997-10.153-7.9653-15.698-12.533-28.188-18.873-62.059-18.586-94.951v-1.0668c0.039093-3.1124 0.21916-6.3553 0.39824-9.7545 0.17018-3.2454 0.3658-6.4012 0.66377-9.6017 1.5128-16.161 4.6904-31.724 9.5584-45.875v-0.1524c1.0206-2.9671 2.11-5.7593 3.1862-8.3826 1.1425-2.7803 2.3471-5.3746 3.5844-7.9254 6.4228-13.222 14.656-24.658 24.825-33.378l0.2655-0.3048c1.7009-1.4442 3.5798-2.859 5.5758-4.2673 2.0321-1.4346 3.9687-2.7354 5.8412-3.8102 8.7796-5.0432 18.756-8.5594 29.737-9.6018zm73.945 114c0.1991-0.022278 0.46405 0.020844 0.66388 0 0.02533-0.002747 0.1058 8.24e-4 0.13272 0 0.11169 0.001099 0.28641-0.001465 0.39822 0 0.026978-8.24e-4 0.10733 0.002441 0.13275 0 0.026611 3.66e-4 0.11926 3.66e-4 0.13278 0 0.11145 0.001099 0.28668-0.001312 0.39832 0 0.02655 3.66e-4 0.11975 0.001099 0.13275 0 0.026459 3.66e-4 0.11914 3.66e-4 0.13272 0 0.11112 8.24e-4 0.28699-0.001312 0.39832 0 0.026398 3.66e-4 0.11945 0.001099 0.13266 0 0.026459 3.66e-4 0.11911 3.66e-4 0.13278 0 0.11099 8.24e-4 0.28714-0.001129 0.39832 0 0.026367 3.66e-4 0.11929 8.24e-4 0.13269 0 0.026428 3.66e-4 0.11902 3.66e-4 0.13275 0 0.11072 7.32e-4 0.28751-0.001129 0.39835 0 0.026245 2.75e-4 0.11902 8.24e-4 0.13266 0h0.26556c0.89053 0.01123 1.7929 0.37851 2.3896 0.91449 0.10019 0.099091 0.31158 0.34439 0.39825 0.45721 0.055511 0.06131 0.21256 0.23846 0.26556 0.30469 0.023712 0.052643 0.1123 0.25305 0.13263 0.3049 0.021729 0.045929 0.098877 0.22446 0.13278 0.30487-9.2e-5 0.01413 0.00119 0.13727 0 0.15244 0.024506 0.052429 0.10986 0.25217 0.13278 0.30487 4.58e-4 0.052216 0.001495 0.25226 0 0.30484v0.45694c5.49e-4 0.016205 0 0.13901 0 0.15244 0.00119 0.014862 0 0.13888 0 0.1524-0.024841 0.054443-0.11041 0.25418-0.13278 0.30496 0.001007 0.014801-1.53e-4 0.13916 0 0.15237-0.023376 0.053894-0.10873 0.25223-0.13278 0.30481-0.033447 0.079834-0.10596 0.2456-0.13263 0.30493-0.067596 0.13296-0.19046 0.33569-0.26556 0.45721-0.20273 0.30707-0.5278 0.66959-0.79657 0.9144-0.022919 0.0271-0.10977 0.12552-0.13278 0.1525-0.61749 0.47073-1.4331 0.86301-2.2568 0.91437h-0.13281c-2.4866 0.16782-4.9609 0.37488-7.3015 0.76218-2.3664 0.3905-4.7495 0.91571-7.0361 1.5239-11.73 3.1245-22.136 9.0397-31.33 17.07-2.2923 2.0043-4.5108 4.1511-6.6378 6.4012-2.1377 2.26-4.2766 4.6852-6.2395 7.1634-10.045 12.679-18.056 28.225-23.896 45.57v0.45716c-1.2328 3.6873-2.4157 7.0875-3.3189 10.364-0.95735 3.4729-1.8333 7.1022-2.6551 10.821-4.0989 18.547-5.9021 38.328-5.443 58.068v0.45697c0.13998 5.6849 0.41598 11.266 0.92924 16.765 0.51938 5.5705 1.218 11.15 2.1241 16.613 4.6754 28.198 14.566 54.628 29.87 75.291l0.1327 0.1523c0.077454 0.12067 0.20612 0.32892 0.26558 0.45728 0.14236 0.34814 0.24751 0.8465 0.26552 1.2194 7.32e-4 0.1228 0.007767 0.32794 0 0.4574-0.095093 0.8399-0.51901 1.7574-1.1948 2.4384l-0.2655 0.1526c-0.023056 0.026978-0.11018 0.12561-0.13281 0.15222-0.1021 0.080444-0.30446 0.24219-0.39821 0.30475-0.060898 0.038086-0.20911 0.12323-0.26553 0.1524-0.1179 0.043152-0.40295 0.11597-0.53104 0.1524-0.044617 0.028015-0.22017 0.12567-0.26553 0.15253-0.79015 0.20343-1.6778 0.12982-2.3896-0.15253-0.31616-0.13916-0.66127-0.36542-0.92932-0.60956-0.028152-0.032349-0.11937-0.1366-0.13275-0.15222-0.055267-0.060608-0.19885-0.22601-0.26543-0.30493l-0.2656-0.3049c-3.0678-4.1627-5.8561-8.54-8.4963-13.107-2.6553-4.5948-5.0815-9.4052-7.3016-14.327-11.509-25.494-17.491-55.168-18.188-85.045v-0.45734c-0.085846-3.9667-0.09787-7.9114 0-11.888 0.091736-3.7576 0.23592-7.7217 0.53104-11.888 1.4315-20.202 5.224-39.911 11.284-57.916 1.1831-3.5119 2.5662-7.1506 3.9827-10.669 1.4194-3.5241 2.856-6.864 4.3809-10.059 7.9809-16.73 18.328-31.166 30.799-42.065v-0.1524h0.13277c1.8908-1.647 3.9137-3.2613 6.1068-4.8772 2.1573-1.5897 4.2483-3.1188 6.3723-4.4199 10.239-6.2672 21.441-10.639 33.985-12.04zm83.238 127.87c0.026276 2.44e-4 0.11877 6.1e-4 0.13275 0 0.027649-2.44e-4 0.10544-0.001465 0.13278 0 0.054596 0.002747 0.21042-0.001099 0.26544 0 0.026276 2.44e-4 0.11856 0.001587 0.13278 0h0.13278c0.026306 2.44e-4 0.11868 7.32e-4 0.13275 0 0.17319-0.0047 0.38977-0.00415 0.53104 0 0.046417-0.001099 0.22076-2.44e-4 0.26541 0 0.15167 0.030396 0.39462 0.10406 0.5311 0.15216 0.11523 0.044067 0.29038 0.10791 0.39825 0.15247 0.28043 0.11566 0.64996 0.28809 0.92929 0.45721 0.045532 0.024414 0.22003 0.12592 0.26547 0.15247 0.023651 0.026917 0.11023 0.12567 0.13275 0.15247 0.10998 0.11615 0.315 0.35773 0.39835 0.45721 0.11682 0.16034 0.30939 0.45782 0.39825 0.60968 0.079285 0.16064 0.19305 0.43628 0.26553 0.60974 0.024292 0.052185 0.1105 0.25256 0.13278 0.30463 0.04129 0.15631 0.1066 0.44879 0.13266 0.60962 9.2e-5 0.05188 0.00116 0.25269 0 0.30487l0.1328 0.1525c0.001373 0.026672-4.58e-4 0.11273 0 0.1524-9.2e-5 0.087036 0.001129 0.2514 0 0.30487 7.02e-4 0.015442 0 0.13892 0 0.15247-0.027283 0.059998-0.10693 0.23938-0.13278 0.30456 0 0.01416-0.001038 0.13745 0 0.15247 0.001465 0.052673-4.58e-4 0.25208 0 0.30487-0.023193 0.052734-0.10855 0.25195-0.13266 0.30463-0.023071 0.053284-0.10904 0.25214-0.13278 0.30487-9.2e-5 0.034424-1.83e-4 0.14594 0 0.15247-0.025299 0.05719-0.097565 0.22583-0.13275 0.30481-0.065308 0.11914-0.19308 0.34631-0.26559 0.45728-0.023193 0.026611-0.10941 0.12616-0.13275 0.1524-0.02066 0.027893-0.11105 0.12488-0.13269 0.15247-0.022064 0.026611-0.10986 0.12579-0.13278 0.15247-0.023285 0.025574-0.10861 0.12683-0.13278 0.1524-0.026398 0.030457-0.1152 0.13214-0.13278 0.15247-0.10318 0.093872-0.28595 0.22101-0.39822 0.30475-0.045685 0.026245-0.21918 0.12653-0.26556 0.15234-0.18048 0.10797-0.44678 0.21497-0.66373 0.30487-0.3305 0.12805-0.73142 0.2655-1.062 0.30481h-0.13275c-2.5798 0.2901-5.0654 0.6922-7.5671 1.2193-2.4699 0.52136-4.9868 1.2142-7.4344 1.9812-12.414 3.8963-23.583 10.76-33.454 19.814-2.69 2.4667-5.3229 4.9747-7.6997 7.6202-2.4162 2.6831-4.659 5.5522-6.9033 8.5352-11.444 15.212-20.473 33.897-26.684 54.41v0.15228c-1.2374 4.096-2.3361 8.2721-3.3189 12.345-1.0221 4.2327-1.8844 8.4696-2.6552 12.65-4.028 21.861-5.2408 44.86-3.1861 67.518v0.15247c0.46817 5.1431 1.1164 10.17 1.8586 14.936 0.7391 4.754 1.6633 9.6303 2.7878 14.632 5.6027 24.914 15.482 48.266 30.003 67.67l0.1327 0.1525c0.079071 0.11963 0.19366 0.32233 0.2655 0.45709 0.090698 0.18231 0.20346 0.43341 0.26556 0.6095 0.023804 0.053101 0.10941 0.25165 0.13266 0.30493-6.71e-4 0.052917 0.001434 0.25171 0 0.30475 0.061401 0.32184 0.11981 0.72162 0.13284 1.0671 1.53e-4 0.028198 4.27e-4 0.12427 0 0.15228 3.66e-4 0.03125 0.001099 0.13922 0 0.15222 2.44e-4 0.015137 0 0.13934 0 0.15247 4.27e-4 0.015259-1.53e-4 0.1394 0 0.15247-0.023865 0.053345-0.10828 0.25159-0.13284 0.30487 0.001434 0.053223-5.8e-4 0.25153 0 0.30487-0.024292 0.02655-0.1084 0.12579-0.13266 0.15253-0.063293 0.1629-0.18109 0.43829-0.26556 0.60968-0.013824 0.014221-0.12073 0.13922-0.13275 0.1524-0.09201 0.13886-0.28339 0.4494-0.39822 0.60974-0.029205 0.034973-0.10513 0.12012-0.13278 0.15204-0.028625 0.031067-0.10336 0.1225-0.13275 0.15253l-0.1328 0.1525-0.1327 0.1524c-0.089142 0.072815-0.30167 0.23773-0.39835 0.30487-0.013092-0.00177-0.12042 0-0.13275 0-0.056702 0.028076-0.21277 0.11993-0.26544 0.15234-0.14004 0.076477-0.37732 0.22913-0.5311 0.30475-0.011536-3.05e-4 -0.11963 0.00116-0.13269 0-0.01123-4.88e-4 -0.12082 0.001465-0.13275 0-1.4392 0.38348-3.0384-0.073914-4.1154-1.2194-0.054077-0.061829-0.1983-0.22577-0.26553-0.30463h-0.13281c-3.0015-4.0164-5.678-8.1612-8.2308-12.345-2.5725-4.2133-5.0482-8.5638-7.3016-13.107-11.529-23.235-18.265-49.586-20.71-76.51v-0.15228c-0.4154-4.6051-0.76669-9.16-0.92929-13.717-0.16708-4.643-0.21106-9.3121-0.13275-13.869 0.40494-23.6 3.979-46.939 10.488-68.432v-0.15253c1.269-4.1899 2.7264-8.2272 4.2482-12.345 1.4752-3.9896 3.1523-8.0689 4.912-12.04 8.8314-19.909 20.352-37.286 34.516-50.295h0.13275c2.1116-1.9363 4.2848-3.7484 6.505-5.4868 2.1794-1.7081 4.5475-3.3251 6.9033-4.8771 11.753-7.7437 24.791-12.922 39.163-14.631zm90.274 145.09c0.00766 0.001282 0.10303 3.05e-4 0.13278 0 0.025848 8.54e-4 0.11795 0.001038 0.13272 0 0.060669-0.001099 0.20309-0.002747 0.2655 0 0.3464 0.026001 0.7648 0.099487 1.0621 0.15234 0.012665-5.49e-4 0.121 2.44e-4 0.13272 0 0.12302 0.029236 0.41006 0.11877 0.53101 0.15247 0.011841-3.05e-4 0.11972 0.001221 0.13272 0 0.14661 0.073914 0.41116 0.24072 0.53101 0.30487 0.20258 0.11566 0.48151 0.31189 0.66388 0.45728 0.1409 0.11859 0.36099 0.29431 0.53101 0.45715 0.026764 0.031738 0.12067 0.13983 0.13266 0.1524 0.029388 0.033691 0.10733 0.11969 0.13284 0.15234 0.022552 0.053528 0.11087 0.25128 0.13272 0.30487 0.014191 0.01532 0.12106 0.13928 0.13275 0.1524 0.31702 0.55121 0.5838 1.3083 0.66379 1.9813-5.8e-4 0.030762-8.85e-4 0.13684 0 0.15259 0.004578 0.19531 0.003479 0.44134 0 0.60968 9.77e-4 0.052185 1.22e-4 0.25348 0 0.30463 6.1e-4 0.01709-3.1e-5 0.13879 0 0.15247-0.024261 0.05426-0.10947 0.25208-0.13266 0.30481-0.033813 0.14905-0.096649 0.46625-0.13284 0.60974-0.56744 1.8215-2.0724 3.2167-3.9826 3.5054-2.8028 0.42706-5.5062 1.0352-8.0983 1.6765-2.6882 0.66559-5.3957 1.4029-7.9652 2.2862-13.281 4.5693-25.519 12.14-36.508 21.947-2.9607 2.6442-5.8883 5.4641-8.7618 8.535-2.8342 3.0277-5.4911 6.1554-8.0982 9.4492-13.428 16.963-24.32 37.761-31.861 60.354-1.4385 4.3146-2.7349 8.9121-3.9827 13.564-1.2436 4.6313-2.3781 9.146-3.3189 13.717-4.9193 23.858-6.3104 48.97-3.5844 73.309 0.4845 4.3147 1.1045 8.6692 1.8586 12.955 0.77344 4.3959 1.6586 8.7208 2.6551 12.802 5.283 21.623 14.28 42.002 27.348 59.745l0.1328 0.1523c4.88e-4 0.035034 3.36e-4 0.14563 0 0.15247 0.014404 0.015747 0.12097 0.13928 0.13281 0.15247 0.023376 0.053589 0.11029 0.25159 0.13263 0.30456 0.030518 0.06665 0.10565 0.23828 0.13278 0.30505 0.023865 0.053467 0.10977 0.25183 0.13278 0.30493 0.02417 0.053101 0.10953 0.25183 0.13278 0.30469-3.36e-4 0.053345 0.001312 0.25195 0 0.30481-5.8e-4 0.016846 6.1e-5 0.13867 0 0.15234 0.02417 0.053345 0.10938 0.25122 0.13278 0.30481-4.58e-4 0.016235 1.83e-4 0.13916 0 0.15247-4.58e-4 0.031616-6.71e-4 0.13904 0 0.15222 0.001862 0.072266 0.001282 0.23389 0 0.30493 7.32e-4 0.053589 6.1e-5 0.2522 0 0.30505 7.32e-4 0.016968-9.2e-5 0.13855 0 0.15234-0.02478 0.055786-0.11023 0.25305-0.13278 0.30481 0.001465 0.053467-5.8e-4 0.25208 0 0.30469-0.023193 0.053589-0.1087 0.2522-0.13278 0.30493-0.022888 0.053467-0.10898 0.25195-0.13278 0.30456-0.026001 0.068237-0.10364 0.23852-0.13278 0.30505-0.022614 0.050049-0.097809 0.22546-0.13263 0.30481-0.06958 0.12915-0.18451 0.33374-0.26556 0.45728-0.023285 0.026855-0.10913 0.12573-0.13278 0.15247-0.063843 0.099243-0.20041 0.34985-0.26547 0.45715-0.0354 0.041382-0.11902 0.13513-0.13278 0.15247l-0.3983 0.3047c-0.1037 0.089355-0.28064 0.22461-0.39819 0.30493-0.1593 0.10266-0.37826 0.22363-0.53104 0.30469-0.011688-2.44e-4 -0.1189 0.001465-0.13278 0-0.023346 0.028442-0.10931 0.125-0.13275 0.15234-0.011475 2.44e-4 -0.1196 0.001465-0.13281 0-0.045715 0.026611-0.21805 0.12439-0.26544 0.15247-0.011902 1.22e-4 -0.11816 6.1e-4 -0.13275 0-0.011566 1.22e-4 -0.11951 7.32e-4 -0.13278 0-1.7744 0.46191-3.7484-0.093384-4.912-1.6764-2.6746-3.6337-5.2023-7.4228-7.567-11.278-2.3675-3.8599-4.6101-7.7384-6.6377-11.736-10.514-20.721-16.754-43.592-19.382-67.06v-0.15222c-0.54358-4.8774-0.96454-9.7636-1.1948-14.784-0.23349-5.0518-0.34531-10.151-0.26556-15.089 0.41534-25.645 4.9462-51.231 12.877-74.986v-0.15259c1.5683-4.6951 3.252-9.2822 5.0446-13.717 1.8015-4.462 3.77-8.7974 5.8413-13.107 10.569-21.992 24.338-41.284 40.756-55.934 2.2718-2.0235 4.7622-4.1315 7.3016-6.0966 2.5034-1.937 4.9446-3.6838 7.4344-5.3342 13.034-8.6299 27.376-14.436 42.747-16.765-4.27e-4 -0.013062 0.001434-0.13532 0-0.15234zm1051.2 22.709c-0.9154 1.6293-1.7634 3.2659-2.655 4.877-8.6689 15.66-16.407 30.934-23.232 45.723-33.417 72.4-42.722 132.18-17.922 171.77-0.7865 0.74005-1.7978 1.451-3.0534 2.1338-13.908 7.5613-454.43 258.54-681.04 386.21-16.468-29.6-35.418-53.669-56.421-70.108l-60.138 35.206c13.109 4.3337 24.081-1.3901 43.544 24.691 6.8882 9.226 14.746 22.69 22.701 38.407-47.365 26.563-77.862 43.535-81.247 44.808-17.898 6.734-28.991-5.3777-35.977-17.984-77.064-122.1 125.3-226.48 233.52-298.11 1.4467-0.8656 2.7048-1.749 3.85-2.5911 0.20831-0.15308 0.46521-0.30493 0.66388-0.45728 0.03479-0.022339 0.10126-0.13806 0.13275-0.15222 0.010681-0.005981 0.12128 0.007324 0.13251 0 115.54-66.265 232.4-132.28 351.27-198.13 100.12-55.468 201.81-110.98 305.87-166.28zm-948.94 145.09h0.13281c0.013794 0 0.12103-1.22e-4 0.13275 0 0.34509-0.038696 0.70386-0.024231 1.0621 0 0.34283 0.022095 0.71924 0.06897 1.062 0.15234 0.013977-0.001465 0.12109 1.83e-4 0.13281 0 1.873 0.60425 3.2443 2.3414 3.5844 4.5723h0.13281v0.15222c2.44e-4 0.02533 0.001282 0.12634 0 0.15259 6.1e-5 0.012268-4.88e-4 0.13983 0 0.15234 0.058838 0.79761-0.043213 1.7198-0.26556 2.4385-0.06488 0.16797-0.20483 0.46985-0.26556 0.60962-0.10858 0.23639-0.26111 0.54596-0.39832 0.76208-0.28448 0.44806-0.66412 0.87299-1.062 1.2192-0.64288 0.53186-1.5298 0.89459-2.3896 1.067v0.15247h-0.13275c-2.9047 0.56592-5.7192 1.1776-8.4964 1.9813-2.7406 0.79218-5.5382 1.8071-8.3636 2.8958-14.093 5.4269-27.204 13.923-39.163 24.843h-0.13275c-3.3046 3.0178-6.4305 6.2145-9.5584 9.6016-3.0592 3.3118-6.0725 6.9117-9.0273 10.669-14.898 18.933-27.051 41.792-35.313 66.603v0.15234c-1.5534 4.678-3.0248 9.6512-4.381 14.784-1.3277 5.0228-2.4553 10.066-3.4516 15.088-5.1737 26.066-6.226 53.155-2.1242 79.405v0.15259c0.63214 4.0444 1.4501 7.8884 2.257 11.583 0.83533 3.8282 1.7071 7.6252 2.7878 11.431 5.5335 19.467 14.282 37.99 26.551 54.715l0.1326 0.3048c0.013367 0.014404 0.12131 0.13916 0.13294 0.1521 0.24026 0.38648 0.50363 0.94385 0.66388 1.3721 0.043579 0.12817 0.10208 0.33191 0.13266 0.45715 0.045868 0.20923 0.10828 0.5498 0.13275 0.76208-9.46e-4 0.030518-7.02e-4 0.13745 0 0.15222 0.002808 0.19421 0.001099 0.45044 0 0.60962-0.001312 0.031494-7.32e-4 0.11365 0 0.15259 0.001007 0.061523 0.001984 0.25098 0 0.30481-0.042358 0.32703-0.18436 0.75391-0.26541 1.067 6.1e-4 0.014893 6.1e-5 0.13794 0 0.15247-0.025452 0.05542-0.11066 0.25549-0.13281 0.30469 3.36e-4 0.015381-2.75e-4 0.13879 0 0.15222-0.064514 0.1593-0.18802 0.45593-0.26556 0.60962-0.061218 0.11365-0.19714 0.34741-0.2655 0.4574-0.046753 0.05249-0.21838 0.25244-0.26553 0.30481-0.15729 0.20606-0.34418 0.42505-0.53094 0.60974l-0.1328 0.1523h-0.13275c-0.023224 0.026367-0.10968 0.12573-0.13281 0.15222-0.19595 0.15832-0.4621 0.31726-0.66376 0.45752-0.023804 0.027222-0.1091 0.12451-0.13287 0.1521-0.36313 0.19482-0.70517 0.36401-1.0619 0.45752h-0.13294c-1.9677 0.51611-4.1122-0.16516-5.4429-1.9814v-0.15247c-2.5106-3.4255-4.8824-6.8646-7.1688-10.516-2.2308-3.5634-4.3582-7.3258-6.3722-11.126-10.206-19.248-16.828-40.02-20.179-61.421v-0.15259c-0.83704-5.3634-1.419-10.738-1.8587-16.155-0.43951-5.4414-0.74106-11.008-0.79669-16.46-0.29184-28.067 4.426-56.251 13.143-82.454 1.716-5.1533 3.5979-10.2 5.5758-15.088 2.0622-5.093 4.1671-9.9012 6.3723-14.479 11.712-24.306 27.114-45.877 45.137-62.336 2.4818-2.2664 5.1504-4.4072 7.8327-6.5536 2.6442-2.1162 5.2485-4.2163 7.9654-6.0962 14.001-9.6993 29.266-16.524 45.402-19.661z" fill="#003f7f"/>
 <path d="m68.678 193.89h1.5624v0.30957h-1.1946v0.80124h1.078v0.30957h-1.078v1.2984h-0.36785v-2.7188m3.0466 0.9924c-0.037628-0.021851-0.078918-0.037628-0.12383-0.047348-0.043701-0.010925-0.092262-0.016388-0.14568-0.016388-0.18939 0-0.33506 0.06192-0.43704 0.18574-0.10077 0.1226-0.15115 0.29926-0.15115 0.52991v1.0744h-0.33688v-2.0395h0.33688v0.31686c0.070419-0.12384 0.16209-0.21548 0.27499-0.27498 0.1129-0.060699 0.25008-0.091049 0.41154-0.091049 0.023056 0 0.048561 0.001816 0.076492 0.005463 0.027916 0.002426 0.058868 0.006683 0.092865 0.012756l0.0018 0.3442m2.0195 0.6228v0.16388h-1.5406c0.014572 0.23067 0.083771 0.40671 0.2076 0.52811 0.12505 0.12018 0.29864 0.18028 0.5208 0.18027 0.12868 1.5e-5 0.25312-0.015778 0.37331-0.047333 0.1214-0.03157 0.24158-0.078918 0.36055-0.14204v0.31686c-0.12018 0.05098-0.24338 0.089828-0.36965 0.11653-0.12626 0.026718-0.25433 0.040054-0.38422 0.040054-0.32536 0-0.58334-0.094681-0.77393-0.28407-0.18938-0.18938-0.28408-0.44553-0.28408-0.76846 0-0.33385 0.089844-0.5985 0.26951-0.79396 0.18088-0.19667 0.42429-0.29501 0.73022-0.29501 0.27436 0 0.49107 0.088638 0.6501 0.26588 0.16025 0.17602 0.24036 0.41579 0.24036 0.7193m-0.3351-0.0983c-0.002426-0.18332-0.054024-0.32959-0.15478-0.43886-0.099548-0.10925-0.23187-0.16388-0.39698-0.1639-0.18695 1.5e-5 -0.33688 0.052826-0.44978 0.15843-0.11169 0.10562-0.17604 0.25433-0.19303 0.44615l1.1946-0.0018m2.6295 0.0983v0.16388h-1.5406c0.014565 0.23067 0.083763 0.40671 0.2076 0.52811 0.12504 0.12018 0.29864 0.18028 0.5208 0.18027 0.12869 1.5e-5 0.25312-0.015778 0.37331-0.047333 0.1214-0.03157 0.24159-0.078934 0.36056-0.14204v0.31686c-0.12019 0.05098-0.24341 0.089828-0.36966 0.11652-0.12626 0.026733-0.25434 0.04007-0.38423 0.04007-0.32536 0-0.58334-0.094681-0.77393-0.28409-0.18938-0.18936-0.28407-0.44551-0.28407-0.76845 0-0.33386 0.089836-0.5985 0.26951-0.79396 0.18088-0.19667 0.42429-0.29501 0.73022-0.29501 0.27435 0 0.49106 0.088638 0.65009 0.26588 0.16024 0.17602 0.24037 0.41579 0.24039 0.7193m-0.3351-0.0983c-0.002426-0.18332-0.054031-0.32959-0.15478-0.43886-0.099556-0.10925-0.23187-0.16388-0.39698-0.16391-0.18697 3.1e-5 -0.33688 0.052841-0.44979 0.15845-0.11168 0.10562-0.17602 0.25433-0.19302 0.44615l1.1946-0.0018m3.4144 0.1584c0-0.24281-0.050392-0.43097-0.15115-0.56451-0.099556-0.13354-0.23978-0.20032-0.42065-0.20032-0.17967 0-0.31988 0.066772-0.42066 0.20032-0.099525 0.13354-0.14932 0.3217-0.14931 0.56451-8e-6 0.24158 0.049782 0.42914 0.14931 0.5627 0.10078 0.13353 0.24099 0.2003 0.42066 0.2003 0.18088 0 0.3211-0.066772 0.42065-0.2003 0.10075-0.13356 0.15115-0.32112 0.15115-0.5627m0.3351 0.7903c-8e-6 0.34723-0.077095 0.60518-0.23127 0.77394-0.15419 0.16997-0.3903 0.25493-0.70837 0.25493-0.11776 0-0.22884-0.009079-0.33324-0.027298-0.10441-0.016998-0.20576-0.043701-0.30411-0.080124v-0.32596c0.098351 0.053421 0.19546 0.09285 0.29136 0.11836 0.095909 0.025497 0.19363 0.038239 0.29318 0.038239 0.21973 0 0.38424-0.057663 0.49348-0.17299 0.10926-0.11412 0.1639-0.28711 0.1639-0.51898v-0.16574c-0.069199 0.12021-0.15782 0.21005-0.26587 0.26953-0.10805 0.059479-0.23734 0.089233-0.38787 0.089233-0.25009 0-0.45162-0.095306-0.60458-0.2859-0.15297-0.1906-0.22945-0.44313-0.22945-0.75754 0-0.31564 0.076477-0.56877 0.22945-0.75935 0.15295-0.1906 0.35448-0.28592 0.60458-0.28592 0.15053 0 0.27982 0.029755 0.38787 0.089233 0.10805 0.059509 0.19667 0.14934 0.26587 0.26953v-0.3096h0.33507v1.7864m1.872-1.4732c-0.037643-0.021851-0.078918-0.037628-0.12383-0.047348-0.043709-0.01091-0.092255-0.016373-0.14569-0.016373-0.18938 0-0.33506 0.06192-0.43704 0.18573-0.10076 0.12262-0.15115 0.29927-0.15115 0.52992v1.0744h-0.33688v-2.0396h0.33688v0.31688c0.070427-0.12384 0.16209-0.2155 0.27499-0.27498 0.11288-0.060715 0.25008-0.091064 0.41154-0.091064 0.023064 0 0.048561 0.001831 0.076477 0.005463 0.027931 0.002441 0.058884 0.006699 0.09288 0.012772l0.0018 0.3441m1.282 0.7011c-0.27072 0-0.45828 0.03093-0.56269 0.09285-0.1044 0.06192-0.1566 0.16754-0.1566 0.31685 0 0.119 0.038841 0.21368 0.11654 0.2841 0.078911 0.069199 0.18575 0.10379 0.3205 0.10379 0.18574 0 0.33445-0.065552 0.44614-0.19667 0.1129-0.13234 0.16935-0.30774 0.16935-0.52626v-0.074661h-0.33324m0.6683-0.1384v1.1636h-0.33508v-0.30957c-0.076477 0.12381-0.17178 0.21547-0.2859 0.27495-0.11411 0.058289-0.25373 0.087402-0.41883 0.087402-0.20881 0-0.37513-0.058243-0.49895-0.1748-0.12262-0.11774-0.18393-0.27498-0.18393-0.47165 0-0.22945 0.076485-0.40242 0.22945-0.51897 0.15417-0.11656 0.38362-0.17482 0.68834-0.17482h0.46982v-0.032791c0-0.15416-0.050987-0.27315-0.15295-0.35692-0.10078-0.084961-0.24281-0.12744-0.42612-0.12747-0.11655 3.1e-5 -0.23005 0.013962-0.34053 0.041901-0.11048 0.027908-0.2167 0.069809-0.31867 0.12564v-0.30957c0.12261-0.047333 0.24158-0.08255 0.35691-0.10562 0.11533-0.024261 0.22763-0.036423 0.33689-0.036423 0.295 0 0.51534 0.076492 0.66102 0.22946 0.14569 0.15295 0.21854 0.38484 0.21854 0.69563m1.0161 0.8577v1.0817h-0.33689v-2.8153h0.33689v0.3096c0.070404-0.12141 0.15903-0.21124 0.26587-0.26953 0.10804-0.059479 0.23672-0.089233 0.38605-0.089233 0.24765 0 0.44857 0.098343 0.60275 0.29501 0.15539 0.19667 0.23309 0.45526 0.23309 0.77574 0 0.3205-0.077698 0.57909-0.23309 0.77576-0.15418 0.19667-0.3551 0.295-0.60275 0.295-0.14932 0-0.27801-0.029129-0.38605-0.087418-0.10684-0.059479-0.19546-0.14993-0.26587-0.27133m1.1399-0.712c0-0.24646-0.051003-0.43947-0.15297-0.57909-0.10076-0.14082-0.23976-0.21124-0.41701-0.21124s-0.31686 0.070419-0.41883 0.21124c-0.10076 0.13962-0.15114 0.33263-0.15114 0.57909 0 0.24641 0.050377 0.44006 0.15114 0.5809 0.10197 0.13959 0.24158 0.20941 0.41883 0.20941s0.31625-0.069824 0.41701-0.20941c0.10197-0.14084 0.15297-0.33449 0.15297-0.5809m2.5986-0.2131v1.231h-0.33507v-1.2201c0-0.19301-0.037628-0.33748-0.1129-0.43338-0.075272-0.095932-0.18818-0.14386-0.33872-0.14386-0.18088 0-0.32354 0.057648-0.42794 0.17299-0.10438 0.11534-0.15659 0.27255-0.15659 0.47165v1.1527h-0.33689v-2.8335h0.33689v1.1108c0.080116-0.12262 0.17421-0.21428 0.28225-0.27498 0.10926-0.060715 0.23491-0.091064 0.37694-0.091064 0.23429 0 0.41155 0.072845 0.53173 0.21852 0.12019 0.14447 0.18028 0.35751 0.18029 0.63919m0.672-0.8085h0.33506v2.0396h-0.33506v-2.0396m0-0.7939h0.33506v0.42427h-0.33506v-0.42427m2.5021 0.8722v0.31323c-0.094711-0.0522-0.18999-0.09108-0.28591-0.11656-0.094681-0.026718-0.19059-0.040039-0.28772-0.04007-0.2173 3.1e-5 -0.38604 0.069199-0.50623 0.20761-0.12019 0.13716-0.18028 0.3302-0.18028 0.57907-8e-6 0.24887 0.060081 0.4425 0.18028 0.5809 0.12019 0.13718 0.28892 0.20578 0.50623 0.20576 0.09713 1.5e-5 0.19303-0.012741 0.28772-0.038239 0.095924-0.026703 0.1912-0.066162 0.28591-0.11836v0.30957c-0.093491 0.043701-0.1906 0.076492-0.29136 0.098343-0.099548 0.021851-0.20578 0.032761-0.31868 0.032761-0.30715 0-0.55116-0.096481-0.73204-0.28952-0.18089-0.19304-0.27133-0.45343-0.27133-0.78122 0-0.33264 0.091049-0.59425 0.27314-0.78485 0.18333-0.1906 0.43401-0.2859 0.75208-0.2859 0.10319 0 0.20396 0.010925 0.30228 0.032776 0.098351 0.020645 0.19365 0.0522 0.28591 0.094696m1.8866-0.0182v0.31685c-0.094688-0.048569-0.19302-0.085007-0.295-0.10927-0.10198-0.024292-0.20761-0.036438-0.31687-0.036438-0.16631 0-0.29134 0.025528-0.37511 0.076508-0.082573 0.05098-0.12383 0.12746-0.12383 0.22943 0 0.077698 0.029739 0.13901 0.089233 0.18393 0.059486 0.043701 0.17905 0.085571 0.35873 0.12564l0.1147 0.0255c0.23795 0.050995 0.40669 0.12322 0.50624 0.2167 0.10076 0.092255 0.15114 0.22154 0.15114 0.38786 0 0.18939-0.075256 0.33932-0.2258 0.44978-0.14933 0.11047-0.35509 0.16571-0.61732 0.16571-0.10928 0-0.22338-0.01091-0.34235-0.032776-0.11776-0.02063-0.2422-0.0522-0.37331-0.094681v-0.34599c0.12384 0.064331 0.24583 0.1129 0.36602 0.14568 0.12019 0.03157 0.23916 0.047348 0.35692 0.047348 0.15782 0 0.27922-0.026703 0.36421-0.080124 0.084969-0.054626 0.12746-0.13112 0.12746-0.22945 0-0.091034-0.03096-0.16086-0.09288-0.20941-0.060677-0.048569-0.19484-0.095306-0.40243-0.14023l-0.1165-0.0273c-0.2076-0.043701-0.35754-0.11047-0.44981-0.2003-0.092247-0.091049-0.13839-0.21548-0.13839-0.37331 0-0.1918 0.067993-0.33992 0.20396-0.44434 0.13596-0.1044 0.329-0.1566 0.57908-0.1566 0.12384 0 0.24036 0.009094 0.34962 0.027313 0.10928 0.018204 0.21003 0.045532 0.3023 0.081955m3.296 0.9615c0-0.24644-0.05098-0.43947-0.15295-0.57907-0.10078-0.14084-0.23978-0.21126-0.41702-0.21126-0.17726 0-0.31687 0.070419-0.41883 0.21126-0.10076 0.1396-0.15115 0.33263-0.15115 0.57907 0 0.24643 0.050385 0.44008 0.15115 0.5809 0.10196 0.1396 0.24157 0.20943 0.41883 0.20943 0.17724 0 0.31624-0.069824 0.41702-0.20943 0.10197-0.14082 0.15295-0.33447 0.15295-0.5809m-1.1399-0.712c0.070419-0.12143 0.15904-0.21126 0.26587-0.26953 0.10805-0.059479 0.23674-0.089233 0.38605-0.089233 0.24767 0 0.44857 0.098328 0.60276 0.295 0.15539 0.19669 0.23309 0.45528 0.23309 0.77576 0 0.3205-0.077705 0.57907-0.23309 0.77574-0.15418 0.19667-0.35509 0.295-0.60276 0.295-0.14931 0-0.278-0.029129-0.38605-0.087402-0.10683-0.059479-0.19545-0.14993-0.26587-0.27133v0.30595h-0.33688v-2.8335h0.33688v1.1035m2.8918 1.9193c-0.094704 0.24283-0.18697 0.40123-0.2768 0.47528-0.089851 0.074066-0.21002 0.11108-0.36056 0.11108h-0.26769v-0.28043h0.19667c0.09227 0 0.1639-0.021851 0.21488-0.065552 0.050987-0.043716 0.10744-0.1469 0.16936-0.30957l0.0601-0.153-0.8249-2.0068h0.3551l0.6374 1.5952 0.6374-1.5952h0.35509l-0.8959 2.2289m2.5603-2.9081h0.36784v2.4092h1.3239v0.30957h-1.6917v-2.7188m1.9612 1.9139v-1.2346h0.33506v1.2219c0 0.19304 0.037636 0.3381 0.11291 0.43523 0.075249 0.095901 0.18817 0.14386 0.3387 0.14386 0.18089 0 0.32353-0.057663 0.42794-0.17299 0.10562-0.11533 0.15843-0.27255 0.15843-0.47165v-1.1563h0.33506v2.0396h-0.33506v-0.31323c-0.081352 0.12382-0.17603 0.2161-0.28408 0.27679-0.10684 0.059479-0.23127 0.089218-0.37332 0.089218-0.23429 0-0.41214-0.07283-0.53354-0.21851-0.1214-0.14569-0.1821-0.35875-0.1821-0.63918m3.9898-0.8431c0.083771-0.15056 0.18392-0.26163 0.30046-0.33327 0.11655-0.071625 0.25373-0.10744 0.41156-0.10744 0.21244 0 0.37632 0.074661 0.49166 0.22398 0.11533 0.1481 0.17299 0.35934 0.17299 0.63371v1.231h-0.33687v-1.2201c-8e-6 -0.19546-0.034622-0.34053-0.1038-0.43523-0.069214-0.094681-0.17482-0.14203-0.31686-0.14203-0.1736 0-0.31078 0.057663-0.41154 0.17299-0.10077 0.11534-0.15116 0.27255-0.15116 0.47165v1.1527h-0.33687v-1.2201c-2.3e-5 -0.19667-0.034599-0.34174-0.10381-0.43523-0.069199-0.094681-0.17602-0.14203-0.32049-0.14203-0.17118 0-0.30715 0.058258-0.4079 0.17482-0.10078 0.11533-0.15116 0.27193-0.15116 0.46982v1.1527h-0.33687v-2.0396h0.33687v0.31686c0.076477-0.12505 0.16814-0.2173 0.27498-0.27679 0.10684-0.059479 0.23369-0.089233 0.3806-0.089233 0.1481 0 0.27375 0.037643 0.37693 0.1129 0.10441 0.075272 0.18151 0.18452 0.23127 0.3278m3.7914 0.5445v0.16386h-1.5406c0.014572 0.23067 0.083771 0.40671 0.20759 0.52811 0.12505 0.12018 0.29866 0.18028 0.52082 0.18027 0.12867 1.5e-5 0.25312-0.015778 0.3733-0.047318 0.12141-0.03157 0.24159-0.078934 0.36057-0.14206v0.31688c-0.1202 0.05098-0.24341 0.089813-0.36968 0.11652-0.12626 0.026718-0.25432 0.040054-0.38422 0.040054-0.32537 0-0.58334-0.094681-0.77394-0.28407-0.18937-0.18938-0.28408-0.44553-0.28408-0.76846 0-0.33385 0.089851-0.5985 0.26951-0.79396 0.18089-0.19667 0.4243-0.295 0.73023-0.295 0.27436 0 0.49106 0.088623 0.6501 0.26587 0.16024 0.17602 0.24038 0.41579 0.24038 0.7193m-0.3351-0.0983c-0.002419-0.18332-0.054008-0.32959-0.15478-0.43886-0.099541-0.10925-0.23188-0.16388-0.39698-0.1639-0.18695 1.5e-5 -0.33689 0.052826-0.44979 0.15843-0.11168 0.10562-0.17602 0.25433-0.19303 0.44615l1.1946-0.0018m2.5804-0.0291v1.231h-0.33508v-1.2201c0-0.19302-0.037628-0.33749-0.1129-0.4334-0.075256-0.095917-0.18816-0.14386-0.3387-0.14386-0.18088 0-0.32354 0.057663-0.42794 0.17299-0.10441 0.11534-0.15661 0.27255-0.15661 0.47165v1.1527h-0.33687v-2.0395h0.33687v0.31686c0.080139-0.12262 0.17421-0.21428 0.28227-0.27498 0.10924-0.060699 0.23491-0.091049 0.37694-0.091049 0.2343 0 0.41154 0.072845 0.53173 0.21852 0.12018 0.14447 0.18029 0.35751 0.18029 0.63918m2.2417-1.1855v2.1142h0.44433c0.37512 0 0.64949-0.084976 0.82309-0.25494 0.17482-0.16997 0.26223-0.43825 0.26223-0.80489 0-0.3642-0.08741-0.63066-0.26223-0.79942-0.1736-0.16995-0.44797-0.25493-0.82309-0.25493h-0.44433m-0.3679-0.3023h0.75573c0.52687 0 0.91353 0.10986 1.16 0.3296 0.24644 0.21851 0.36966 0.56087 0.36966 1.027 0 0.46861-0.12384 0.81279-0.37149 1.0325-0.24765 0.21974-0.63372 0.3296-1.1582 0.3296h-0.75572v-2.7188m4.5999 1.6152v0.16388h-1.5406c0.01458 0.23067 0.083771 0.40671 0.2076 0.52811 0.12505 0.12018 0.29864 0.18028 0.5208 0.18027 0.1287 1.5e-5 0.25312-0.015778 0.37332-0.047333 0.1214-0.03157 0.24158-0.078918 0.36056-0.14204v0.31686c-0.1202 0.05098-0.24341 0.089828-0.36967 0.11653-0.12625 0.026718-0.25433 0.040054-0.38423 0.040054-0.32536 0-0.58333-0.094681-0.77394-0.28407-0.18937-0.18938-0.28406-0.44553-0.28406-0.76846 0-0.33385 0.089828-0.5985 0.26951-0.79396 0.18088-0.19667 0.42428-0.295 0.73021-0.295 0.27437 0 0.49106 0.088623 0.65011 0.26587 0.16024 0.17602 0.24037 0.41579 0.24037 0.7193m-0.3351-0.0983c-0.002441-0.18332-0.054031-0.32959-0.1548-0.43886-0.099541-0.10925-0.23188-0.16388-0.39698-0.1639-0.18695 1.5e-5 -0.33689 0.052826-0.44979 0.15843-0.11168 0.10562-0.17602 0.25433-0.19301 0.44615l1.1946-0.0018m2.1852-0.7776v0.31685c-0.094681-0.048569-0.19301-0.084991-0.29499-0.10927-0.10199-0.024277-0.20759-0.036423-0.31685-0.036423-0.16632 0-0.29137 0.025513-0.37513 0.076492-0.08255 0.05098-0.12384 0.12747-0.12384 0.22945 0 0.077698 0.029739 0.13901 0.089241 0.18391 0.059479 0.043716 0.17906 0.085587 0.35874 0.12566l0.1147 0.0255c0.23795 0.050995 0.4067 0.12322 0.50624 0.2167 0.10077 0.092255 0.15114 0.22154 0.15114 0.38786 0 0.18939-0.075256 0.33932-0.2258 0.44978-0.14931 0.11047-0.35509 0.1657-0.61731 0.1657-0.10927 0-0.22339-0.01091-0.34236-0.032761-0.11776-0.02063-0.24219-0.0522-0.3733-0.094681v-0.34601c0.12383 0.064331 0.24584 0.1129 0.36602 0.14569 0.12018 0.03157 0.23916 0.047348 0.35692 0.047348 0.15782 0 0.27922-0.026718 0.3642-0.080139 0.084976-0.054611 0.12746-0.13112 0.12746-0.22943 0-0.091049-0.030937-0.16086-0.092857-0.20941-0.060699-0.048569-0.19486-0.095306-0.40244-0.14023l-0.1165-0.0273c-0.20761-0.043686-0.35753-0.11046-0.44979-0.20029-0.09227-0.091049-0.1384-0.21548-0.1384-0.37331 0-0.19182 0.067978-0.33992 0.20395-0.44434 0.13597-0.1044 0.32899-0.1566 0.57908-0.1566 0.12383 0 0.24038 0.009094 0.34964 0.027313 0.10926 0.018204 0.21002 0.045517 0.30227 0.081955m0.6447-0.0601h0.33507v2.0395h-0.33507v-2.0395m0-0.7939h0.33507v0.42429h-0.33507v-0.42429m2.3764 1.79c-8e-6 -0.2428-0.050392-0.43097-0.15116-0.56451-0.099541-0.13354-0.23976-0.20032-0.42064-0.20032-0.17967 0-0.3199 0.066772-0.42066 0.20032-0.099541 0.13354-0.14933 0.32172-0.14933 0.56451 0 0.24156 0.049789 0.42915 0.14933 0.5627 0.10076 0.13353 0.24099 0.2003 0.42066 0.2003 0.18088 0 0.3211-0.066772 0.42064-0.2003 0.10077-0.13354 0.15115-0.32114 0.15116-0.5627m0.3351 0.7903c0 0.34721-0.077103 0.60518-0.23127 0.77393-0.15418 0.16997-0.39031 0.25494-0.70838 0.25494-0.11776 0-0.22883-0.009094-0.33323-0.027313-0.10441-0.016998-0.20578-0.043701-0.30411-0.080124v-0.32596c0.098328 0.053421 0.19545 0.092865 0.29136 0.11836 0.095909 0.025497 0.19362 0.038239 0.29317 0.038239 0.21975 0 0.38424-0.057663 0.4935-0.17299 0.10926-0.11412 0.1639-0.28711 0.1639-0.51898v-0.16573c-0.069199 0.12019-0.15783 0.21004-0.26587 0.26952-0.10806 0.059479-0.23734 0.089233-0.38789 0.089233-0.25007 0-0.4516-0.095306-0.60457-0.2859-0.15296-0.1906-0.22944-0.44312-0.22944-0.75754 0-0.31564 0.076477-0.56876 0.22944-0.75935 0.15297-0.1906 0.3545-0.2859 0.60457-0.2859 0.15055 0 0.27983 0.029739 0.38789 0.089233 0.10804 0.059494 0.19667 0.14932 0.26587 0.26952v-0.30959h0.33506v1.7864m2.3855-0.9779v1.231h-0.33506v-1.2201c-2.3e-5 -0.19302-0.037643-0.33749-0.11292-0.43341-0.075256-0.095901-0.18816-0.14386-0.3387-0.14386-0.18088 0-0.32354 0.057678-0.42794 0.17299-0.1044 0.11534-0.1566 0.27257-0.1566 0.47166v1.1527h-0.33688v-2.0395h0.33688v0.31686c0.080132-0.12262 0.17421-0.21428 0.28226-0.27498 0.10924-0.060699 0.23491-0.091049 0.37694-0.091049 0.23429 0 0.41153 0.07283 0.53173 0.21852 0.12019 0.14447 0.18028 0.35751 0.18028 0.63916m3.5036-1.3985v0.35875c-0.13962-0.066772-0.27133-0.11656-0.39517-0.14932-0.12382-0.032776-0.24341-0.049179-0.35873-0.049179-0.20032 0-0.35509 0.038864-0.46436 0.11653-0.10805 0.077713-0.16206 0.18817-0.16206 0.33142 0 0.12021 0.035812 0.21126 0.10744 0.27318 0.072845 0.060699 0.21002 0.10988 0.41154 0.14749l0.2222 0.0455c0.27435 0.0522 0.47649 0.14447 0.60638 0.27678 0.13112 0.13112 0.19667 0.30716 0.19667 0.52811 0 0.26344-0.088623 0.46314-0.26587 0.59909-0.17602 0.13597-0.4346 0.20395-0.77574 0.20395-0.12869 0-0.26587-0.014557-0.41154-0.043671-0.14447-0.029144-0.2944-0.07225-0.44978-0.12932v-0.37877c0.14931 0.083771 0.29561 0.14691 0.43886 0.18941 0.14325 0.04248 0.28407 0.063721 0.42247 0.063721 0.21002 0 0.3721-0.041275 0.48621-0.12382 0.11412-0.08255 0.17117-0.2003 0.17117-0.35327 0-0.13354-0.041275-0.23796-0.12382-0.31323-0.081345-0.075256-0.21548-0.1317-0.40244-0.16933l-0.224-0.0437c-0.27435-0.054626-0.47284-0.14021-0.59546-0.25676s-0.18393-0.27862-0.18393-0.48621c0-0.24037 0.084381-0.42975 0.25313-0.56816 0.16995-0.13838 0.40366-0.20761 0.70108-0.20761 0.12747 0 0.25737 0.011551 0.38969 0.034622s0.26768 0.057648 0.4061 0.10379m1.0544 0.0109v0.5791h0.69017v0.26041h-0.69017v1.1072c0 0.16634 0.022461 0.27315 0.067383 0.32051 0.046127 0.047318 0.13899 0.070999 0.27861 0.070999h0.34418v0.28046h-0.34418c-0.25858 0-0.43704-0.047958-0.53537-0.14388-0.098343-0.097122-0.14751-0.27316-0.14751-0.52809v-1.1072h-0.24583v-0.26041h0.24583v-0.5791h0.33688m1.0981 1.8138v-1.2346h0.33507v1.2219c0 0.19304 0.037628 0.33812 0.1129 0.43524 0.075272 0.095886 0.18817 0.14386 0.33872 0.14386 0.18088 0 0.32353-0.057663 0.42795-0.17299 0.10561-0.11534 0.15842-0.27255 0.15842-0.47166v-1.1563h0.33507v2.0395h-0.33507v-0.31322c-0.081345 0.12381-0.17604 0.21608-0.28407 0.27678-0.10684 0.059479-0.23128 0.089218-0.37331 0.089218-0.2343 0-0.41217-0.072815-0.53357-0.21851-0.1214-0.14569-0.1821-0.35873-0.1821-0.63916m3.744-0.9251v-1.1036h0.33508v2.8335h-0.33508v-0.30594c-0.070404 0.1214-0.15964 0.21185-0.26767 0.27133-0.10684 0.058258-0.23552 0.087387-0.38606 0.087387-0.24644 0-0.44736-0.098328-0.60275-0.295-0.15418-0.19667-0.23126-0.45523-0.23126-0.77574 0-0.3205 0.077087-0.57909 0.23126-0.77576 0.1554-0.19667 0.35631-0.29498 0.60275-0.29498 0.15054 0 0.27922 0.029724 0.38606 0.089233 0.10803 0.058258 0.19727 0.14809 0.26767 0.2695m-1.1418 0.712c0 0.24644 0.050385 0.44009 0.15115 0.5809 0.10197 0.13962 0.24158 0.20941 0.41884 0.20941 0.17723 0 0.31685-0.069794 0.41882-0.20941 0.10197-0.14081 0.15295-0.33446 0.15295-0.5809 0-0.24643-0.05098-0.43947-0.15295-0.57909-0.10197-0.14082-0.24159-0.21124-0.41882-0.21124-0.17726 0-0.31686 0.070419-0.41884 0.21124-0.10077 0.13962-0.15115 0.33266-0.15115 0.57909m2.167-1.0216h0.33507v2.0395h-0.33507v-2.0395m0-0.794h0.33507v0.4243h-0.33507v-0.4243m1.8246 1.0289c-0.17967 0-0.3217 0.070419-0.4261 0.21123-0.10442 0.1396-0.15662 0.33142-0.15662 0.57544 0 0.24403 0.05159 0.43643 0.15478 0.57727 0.1044 0.1396 0.24704 0.20941 0.42793 0.20941 0.17847 0 0.31988-0.070419 0.4243-0.21123 0.1044-0.14085 0.1566-0.33264 0.1566-0.57546 0-0.24158-0.0522-0.4328-0.1566-0.57361-0.10442-0.14203-0.24583-0.21306-0.4243-0.21306m0-0.2841c0.29137 0 0.5202 0.094681 0.68652 0.28407 0.16632 0.18938 0.24948 0.4516 0.24948 0.78667 0 0.33386-0.08316 0.59608-0.24948 0.78668-0.16632 0.18939-0.39516 0.28406-0.68652 0.28406-0.29257 0-0.52202-0.094666-0.68834-0.28406-0.1651-0.1906-0.24766-0.45282-0.24766-0.78668 0-0.33507 0.082565-0.59729 0.24766-0.78667 0.16632-0.18939 0.39577-0.28407 0.68834-0.28407"/>
</svg>
