<?xml version="1.0" encoding="UTF-8"?>
<svg width="53.074mm" height="39.752mm" version="1.1" viewBox="0 0 188.05662 140.85327" xmlns="http://www.w3.org/2000/svg">
 <g transform="translate(-283.11 -459.08)">
  <path d="m402.74 459.08a1.3963 1.3963 0 0 0 -0.9759 0.37195l-11.67 10.816a1.3963 1.3963 0 0 0 -0.027 0.0278 1.3963 1.3963 0 0 0 -0.056 0.0571 1.3963 1.3963 0 0 0 -0.038 0.044 1.3963 1.3963 0 0 0 -0.052 0.0648 1.3963 1.3963 0 0 0 -0.031 0.0448 1.3963 1.3963 0 0 0 -0.046 0.071 1.3963 1.3963 0 0 0 -0.028 0.0502 1.3963 1.3963 0 0 0 -0.036 0.0718 1.3963 1.3963 0 0 0 -0.022 0.0517 1.3963 1.3963 0 0 0 -0.03 0.0783 1.3963 1.3963 0 0 0 -0.018 0.0548 1.3963 1.3963 0 0 0 -0.022 0.0764 1.3963 1.3963 0 0 0 -0.013 0.0602 1.3963 1.3963 0 0 0 -0.013 0.0772 1.3963 1.3963 0 0 0 -0.01 0.0579 1.3963 1.3963 0 0 0 -0.01 0.099 1.3963 1.3963 0 0 0 0 8e-3 1.3963 1.3963 0 0 0 0 0.0293v14.827l-7.3719-2.0599v-7.1048a1.0472 1.0472 0 0 0 -0.01 -0.0641 1.0472 1.0472 0 0 0 0 -0.034 1.0472 1.0472 0 0 0 -0.01 -0.0633 1.0472 1.0472 0 0 0 -0.01 -0.0409 1.0472 1.0472 0 0 0 -0.012 -0.0479 1.0472 1.0472 0 0 0 -0.014 -0.0548 1.0472 1.0472 0 0 0 -0.016 -0.044 1.0472 1.0472 0 0 0 -0.019 -0.0533 1.0472 1.0472 0 0 0 -0.025 -0.0548 1.0472 1.0472 0 0 0 -0.019 -0.0394 1.0472 1.0472 0 0 0 -0.036 -0.0618 1.0472 1.0472 0 0 0 -0.017 -0.027 1.0472 1.0472 0 0 0 -0.041 -0.0548 1.0472 1.0472 0 0 0 -0.023 -0.0301 1.0472 1.0472 0 0 0 -0.043 -0.0463 1.0472 1.0472 0 0 0 -0.028 -0.0301 1.0472 1.0472 0 0 0 -0.042 -0.0378 1.0472 1.0472 0 0 0 -0.038 -0.0332 1.0472 1.0472 0 0 0 -0.037 -0.027 1.0472 1.0472 0 0 0 -0.048 -0.034 1.0472 1.0472 0 0 0 -0.035 -0.0208 1.0472 1.0472 0 0 0 -0.056 -0.0324 1.0472 1.0472 0 0 0 -0.026 -0.0124 1.0472 1.0472 0 0 0 -0.068 -0.0301 1.0472 1.0472 0 0 0 -0.031 -0.0108 1.0472 1.0472 0 0 0 -0.071 -0.0239 1.0472 1.0472 0 0 0 -0.01 0 1.0472 1.0472 0 0 0 -0.073 -0.0178l-14.291-2.7767a1.0472 1.0472 0 0 0 -0.2084 -0.0193 1.0472 1.0472 0 0 0 -0.5895 0.18752l-6.4471 4.487-7.1538-1.999c-0.033-0.0139-0.069-0.027-0.1099-0.0386-0.099-0.0263-0.216-0.0409-0.3424-0.0448h-0.1293c-0.059 8e-3 -0.1185 8e-3 -0.1788 0.0139-0.01 0-0.019 0-0.028 8e-3 -0.2952 0.0355-0.5701 0.12499-0.7407 0.24109l-5.3866 2.8064-5.5494-1.5065a0.69814 0.69814 0 0 0 -0.2072 -0.0239 0.69814 0.69814 0 0 0 -0.3213 0.0911l-11.812 6.73a0.69814 0.69814 0 0 0 -0.02 0.0131 0.69814 0.69814 0 0 0 -0.025 0.0162 0.69814 0.69814 0 0 0 -0.033 0.0239 0.69814 0.69814 0 0 0 -0.022 0.0178 0.69814 0.69814 0 0 0 -0.032 0.0286 0.69814 0.69814 0 0 0 -0.019 0.0193 0.69814 0.69814 0 0 0 -0.027 0.0293 0.69814 0.69814 0 0 0 -0.02 0.0239 0.69814 0.69814 0 0 0 -0.022 0.0286 0.69814 0.69814 0 0 0 -0.019 0.0278 0.69814 0.69814 0 0 0 -0.018 0.0317 0.69814 0.69814 0 0 0 -0.016 0.0293 0.69814 0.69814 0 0 0 -0.015 0.0317 0.69814 0.69814 0 0 0 -0.013 0.0316 0.69814 0.69814 0 0 0 -0.013 0.0363 0.69814 0.69814 0 0 0 -0.01 0.0293 0.69814 0.69814 0 0 0 -0.01 0.0332 0.69814 0.69814 0 0 0 -0.01 0.0394 0.69814 0.69814 0 0 0 -0.01 0.0239 0.69814 0.69814 0 0 0 -0.01 0.0455 0.69814 0.69814 0 0 0 0 0.0232 0.69814 0.69814 0 0 0 0 0.0239v3.6076l-12.177 6.3442c-0.1057 0.044-0.2026 0.0946-0.2863 0.14915l-14.498 7.5533c-0.1166 0.0494-0.2247 0.1056-0.3201 0.1669l-16.28 8.4812c-0.3833 0.16336-0.6848 0.39271-0.8098 0.61651-0.01 8e-3 -0.01 0.0139-0.012 0.0216-0.1188 0.22133-0.049 0.40938 0.1897 0.50611l9.6031 6.7486c0.051 0.0618 0.1236 0.1131 0.21561 0.15162l11.15 7.8358c0.062 0.0718 0.1473 0.13155 0.252 0.17694l13.105 9.209c0.076 0.0844 0.1769 0.15525 0.2978 0.20937l15.622 10.978c0.096 0.1009 0.2165 0.18581 0.3578 0.25136l18.941 13.31c0.1217 0.12282 0.2697 0.22666 0.4379 0.30756l23.443 16.475c0.1583 0.15285 0.3436 0.28309 0.5484 0.3853l29.768 20.919c0.6271 0.58177 1.4651 0.8911 2.248 0.82811 0.024 0 0.049-8e-3 0.072-8e-3 0.7702-0.071 1.3844-0.49608 1.6533-1.142l16.868-25.036c0.1411-0.13394 0.2472-0.29151 0.3141-0.46628l13.592-20.172c0.1199-0.10986 0.2064-0.23839 0.256-0.38013l11.185-16.6c0.1038-0.0918 0.1756-0.19856 0.2127-0.31574l9.3659-13.901c0.091-0.078 0.1517-0.16791 0.1797-0.26641l7.9569-11.809c0.2391-0.1984 0.2164-0.47439-0.06-0.74142-0.01-8e-3 -0.017-0.0178-0.026-0.0263-0.2781-0.26139-0.766-0.48087-1.3149-0.59227l-23.991-6.7033c-0.1432-0.0533-0.2988-0.0967-0.4608-0.12869l-20.561-5.7451c-0.1215-0.0463-0.2555-0.0838-0.3974-0.11101l-0.4526-0.12645v-32.822a1.3963 1.3963 0 0 0 -0.01 -0.0486 1.3963 1.3963 0 0 0 -0.01 -0.0625 1.3963 1.3963 0 0 0 -0.01 -0.0726 1.3963 1.3963 0 0 0 -0.01 -0.0664 1.3963 1.3963 0 0 0 -0.015 -0.0703 1.3963 1.3963 0 0 0 -0.017 -0.0664 1.3963 1.3963 0 0 0 -0.022 -0.0672 1.3963 1.3963 0 0 0 -0.024 -0.0648 1.3963 1.3963 0 0 0 -0.028 -0.0633 1.3963 1.3963 0 0 0 -0.03 -0.0625 1.3963 1.3963 0 0 0 -0.034 -0.0618 1.3963 1.3963 0 0 0 -0.037 -0.0602 1.3963 1.3963 0 0 0 -0.039 -0.054 1.3963 1.3963 0 0 0 -0.045 -0.0587 1.3963 1.3963 0 0 0 -0.043 -0.0494 1.3963 1.3963 0 0 0 -0.049 -0.054 1.3963 1.3963 0 0 0 -0.047 -0.0448 1.3963 1.3963 0 0 0 -0.058 -0.051 1.3963 1.3963 0 0 0 -0.048 -0.0371 1.3963 1.3963 0 0 0 -0.065 -0.0463 1.3963 1.3963 0 0 0 -0.051 -0.0324 1.3963 1.3963 0 0 0 -0.067 -0.0386 1.3963 1.3963 0 0 0 -0.059 -0.0293 1.3963 1.3963 0 0 0 -0.067 -0.0293 1.3963 1.3963 0 0 0 -0.059 -0.0224 1.3963 1.3963 0 0 0 -0.077 -0.0255 1.3963 1.3963 0 0 0 -0.055 -0.0147 1.3963 1.3963 0 0 0 -0.082 -0.0185 1.3963 1.3963 0 0 0 -0.043 -8e-3 1.3963 1.3963 0 0 0 -0.047 -8e-3l-19.658-2.3545a1.3963 1.3963 0 0 0 -0.1394 -9e-3zm0.4483 2.8591 16.329 1.9557-8.8294 9.7209-16.669-3.1779 9.1698-8.4987zm17.786 4.5047v58.115l-8.3827 9.229v-58.115l8.3827-9.2292zm-28.535 6.5357 17.36 3.3093v58.945l-17.36-7.8794v-54.375zm-25.268 2.311 11.595 2.2527-9.7363 7.5727-11.64-3.0176 9.7814-6.8078zm-15.177 1.3588 6.7844 1.9311-4.4548 3.1004a1.0472 1.0472 0 0 0 -0.018 0.0139 1.0472 1.0472 0 0 0 -0.039 0.0309 1.0472 1.0472 0 0 0 -0.039 0.0324 1.0472 1.0472 0 0 0 -0.041 0.0386 1.0472 1.0472 0 0 0 -0.035 0.0355 1.0472 1.0472 0 0 0 -0.035 0.0401 1.0472 1.0472 0 0 0 -0.032 0.0386 1.0472 1.0472 0 0 0 -0.031 0.0448 1.0472 1.0472 0 0 0 -0.028 0.0432 1.0472 1.0472 0 0 0 -0.025 0.0455 1.0472 1.0472 0 0 0 -0.023 0.0455 1.0472 1.0472 0 0 0 -0.022 0.0517 1.0472 1.0472 0 0 0 -0.018 0.0448 1.0472 1.0472 0 0 0 -0.017 0.0533 1.0472 1.0472 0 0 0 -0.013 0.0463 1.0472 1.0472 0 0 0 -0.012 0.0548 1.0472 1.0472 0 0 0 -0.01 0.0494 1.0472 1.0472 0 0 0 -0.01 0.054 1.0472 1.0472 0 0 0 -0.01 0.0486 1.0472 1.0472 0 0 0 0 0.0471v1.3212l-1.6415 0.92523-0.589-0.19145v-3.691a0.69814 0.69814 0 0 0 0 -0.034 0.69814 0.69814 0 0 0 0 -0.0293 0.69814 0.69814 0 0 0 -0.01 -0.0417 0.69814 0.69814 0 0 0 -0.01 -0.0262 0.69814 0.69814 0 0 0 -0.012 -0.0479 0.69814 0.69814 0 0 0 -0.01 -0.0185 0.69814 0.69814 0 0 0 -0.015 -0.0424 0.69814 0.69814 0 0 0 -0.01 -0.0247 0.69814 0.69814 0 0 0 -0.015 -0.0317 0.69814 0.69814 0 0 0 -0.016 -0.034 0.69814 0.69814 0 0 0 -0.014 -0.0232 0.69814 0.69814 0 0 0 -0.022 -0.0355 0.69814 0.69814 0 0 0 -0.025 -0.034 0.69814 0.69814 0 0 0 -0.015 -0.0201 0.69814 0.69814 0 0 0 -0.026 -0.0293 0.69814 0.69814 0 0 0 -0.023 -0.0247 0.69814 0.69814 0 0 0 -0.02 -0.0185 0.69814 0.69814 0 0 0 -0.032 -0.0278 0.69814 0.69814 0 0 0 -0.026 -0.0193 0.69814 0.69814 0 0 0 -0.029 -0.0208 0.69814 0.69814 0 0 0 -0.027 -0.0162 0.69814 0.69814 0 0 0 -0.035 -0.0208 0.69814 0.69814 0 0 0 -0.026 -0.0124 0.69814 0.69814 0 0 0 -0.035 -0.0162 0.69814 0.69814 0 0 0 -0.037 -0.0131 0.69814 0.69814 0 0 0 -0.032 -0.0108 0.69814 0.69814 0 0 0 -0.01 0l-3.9211-1.0646 4.7861-2.5168zm-11.81 2.0569 9.0247 2.45-10.292 6.3514-8.9367-2.9873 10.205-5.8141zm39.997 0.38962v29.458l-9.8681 7.6749v-29.458l9.8681-7.6749zm-29.933 3.0596v14.721l-10.545 6.507v-14.721l10.545-6.5072zm5.7209 1.738 12.25 3.1757v29.675l-12.25-5.56v-27.291zm-2.0942 1.2874v0.13927l-0.1557-0.051 0.1557-0.0886zm28.4 0.0883 5.8147 1.6551-5.8147 3.988v-5.6432zm-53.3 0.38715 9.3324 3.1195v14.776l-9.3324-4.2358v-13.659zm23.297 0.43764 1.6031 0.5312v8.8336l-1.3039 0.80472-0.9266-0.35341v-9.4586l0.6274-0.35751zm37.376 1.5966v9.252l-7.372-2.3949v-1.7263l7.372-5.1308zm-62.068 1.7989v9.1945l-0.7513 0.42352-9.413-4.2726 10.164-5.3454zm-11.936 6.2771 9.3811 4.3575-13.249 7.4679-9.1037-5.0034 12.972-6.822zm66.632 0.26966 7.372 2.443v4.0387l-6.8067 5.2941-0.5653-0.21562v-11.56zm42.19 1.2424 18.413 5.2415-8.2184 9.0479-10.893-3.5393v-10.103l0.6987-0.64731zm-71.846 0.63944 1.2551 0.4892v11.984l-0.8707 0.59721-12.34-5.6009 11.956-7.4698zm-26.15 2.8771 10.702 4.9712-13.529 8.3484-10.46-5.7492 13.287-7.5704zm119.28 2.5413 21.513 6.124-7.2507 10.344-22.382-7.2719 8.119-9.196zm-145.06 0.29536 9.0544 5.1065-14.997 8.4535-8.6367-5.8927 14.579-7.6672zm88.96 1.3967v5.3806l-4.5865-1.7501 4.5865-3.6305zm-50.82 1.5068 12.324 5.7241-13.739 9.4236-12.144-6.6752 13.56-8.4725zm-27.686 2.9927 10.415 5.8738-15.456 9.5379-10.016-6.8332 15.056-8.5786zm112.62 0.25738 9.6178 3.1868-9.5269 10.489-0.091-0.0347v-13.641zm-40.315 0.14722 6.1953 2.4141v13.56l-1.2601 1.1425-16.879-7.6615 11.944-9.4548zm-30.384 3.2172 14.344 6.6624-13.831 10.757-14.271-7.844 13.759-9.5758zm83.3 0.81098 22.51 7.4592-8.518 12.152-23.418-8.9345 9.4261-10.677zm-113.19 2.354 12.107 6.8282-15.866 10.882-11.753-8.0186 15.511-9.6916zm46.479 4.5394 16.904 7.8518-13.726 12.446-17.01-9.3489 13.831-10.949zm-32.479 3.3562 14.248 8.0357-16.175 12.58-13.985-9.5417 15.912-11.074zm88.293 2.095 23.551 9.1773-10.15 14.48-24.478-11.11 11.077-12.547zm-36.247 3.6373 20.218 9.3912-13.291 14.633-20.62-11.333 13.693-12.691zm-35.555 3.5681 17.013 9.5946-16.296 14.776-16.92-11.544 16.203-12.826zm58.984 7.3141 24.612 11.432-12.3 17.547-25.516-14.024 13.203-14.955zm-39.272 3.8023 20.667 11.656-16.071 17.694-20.887-14.251 16.291-15.098zm23.977 13.522 25.641 14.46-15.213 21.704-26.434-18.035 16.006-18.129z" color="#000000" color-rendering="auto" fill="#43dbb2" fill-rule="evenodd" filter="url(#filter4218)" image-rendering="auto" shape-rendering="auto" solid-color="#000000" style="block-progression:tb;isolation:auto;mix-blend-mode:normal;text-decoration-color:#000000;text-decoration-line:none;text-decoration-style:solid;text-indent:0;text-transform:none;white-space:normal"/>
 </g>
</svg>
